<?xml version="1.0" encoding="UTF-8" standalone="no"?>
<!-- Created with Inkscape (http://www.inkscape.org/) -->

<svg
   xmlns:dc="http://purl.org/dc/elements/1.1/"
   xmlns:cc="http://creativecommons.org/ns#"
   xmlns:rdf="http://www.w3.org/1999/02/22-rdf-syntax-ns#"
   xmlns:svg="http://www.w3.org/2000/svg"
   xmlns="http://www.w3.org/2000/svg"
   xmlns:sodipodi="http://sodipodi.sourceforge.net/DTD/sodipodi-0.dtd"
   xmlns:inkscape="http://www.inkscape.org/namespaces/inkscape"
   version="1.1"
   width="128"
   height="128"
   id="svg4131"
   inkscape:version="0.48.2 r9819"
   sodipodi:docname="logo.svg">
  <sodipodi:namedview
     pagecolor="#ffffff"
     bordercolor="#666666"
     borderopacity="1"
     objecttolerance="10"
     gridtolerance="10"
     guidetolerance="10"
     inkscape:pageopacity="0"
     inkscape:pageshadow="2"
     inkscape:window-width="850"
     inkscape:window-height="537"
     id="namedview2990"
     showgrid="false"
     inkscape:zoom="1.84375"
     inkscape:cx="64"
     inkscape:cy="64"
     inkscape:window-x="0"
     inkscape:window-y="0"
     inkscape:window-maximized="0"
     inkscape:current-layer="svg4131" />
  <metadata
     id="metadata4139">
    <rdf:RDF>
      <cc:Work
         rdf:about="">
        <dc:format>image/svg+xml</dc:format>
        <dc:type
           rdf:resource="http://purl.org/dc/dcmitype/StillImage" />
        <dc:title />
      </cc:Work>
    </rdf:RDF>
  </metadata>
  <defs
     id="defs4137" />
  <path
     d="m 103.0625,35.205391 c 1.04166,1.041667 1.93452,2.455338 2.67857,4.241015 0.74405,1.785729 1.11607,3.42263 1.11607,4.910703 l 0,64.285781 c 0,1.48807 -0.52083,2.75294 -1.5625,3.79461 C 104.25298,113.47917 102.9881,114 101.5,114 l -75.000001,0 c -1.488095,0 -2.752976,-0.52083 -3.794643,-1.5625 -1.041667,-1.04167 -1.5625,-2.30654 -1.5625,-3.79461 l 0,-89.285781 c 0,-1.488073 0.520833,-2.752942 1.5625,-3.794609 C 23.747023,14.520833 25.011904,14 26.499999,14 l 50,0 c 1.488095,0 3.125,0.372031 4.910714,1.116094 1.785714,0.74401 3.199404,1.636848 4.241072,2.678515 z"
     id="path4909"
     style="fill:#ffffff;fill-opacity:1" />
  <path
     d="m 103.0625,35.205391 q 1.5625,1.5625 2.67857,4.241015 1.11607,2.678594 1.11607,4.910703 v 64.285781 q 0,2.23211 -1.5625,3.79461 Q 103.73214,114 101.5,114 H 26.499998 q -2.232143,0 -3.794643,-1.5625 -1.5625,-1.5625 -1.5625,-3.79461 V 19.357109 q 0,-2.232109 1.5625,-3.794609 Q 24.267856,14 26.499998,14 h 50.000001 q 2.232142,0 4.910713,1.116094 2.678572,1.116015 4.241072,2.678515 z M 78.285712,21.589297 V 42.571406 H 99.267855 Q 98.70982,40.953125 98.040176,40.283516 L 80.573659,22.816953 Q 79.904017,22.147344 78.285712,21.589297 z M 99.714285,106.85711 V 49.714297 H 76.499999 q -2.232144,0 -3.794644,-1.5625 -1.5625,-1.5625 -1.5625,-3.794688 V 21.142891 H 28.285712 V 106.85711 H 99.714285 z M 71.031249,73.765625 q 1.841518,1.450859 4.6875,3.125 Q 79.011159,76.5 82.247767,76.5 q 8.203125,0 9.877232,2.734375 0.892857,1.227656 0.111607,2.901797 0,0.05547 -0.05581,0.111562 l -0.111607,0.111641 v 0.05547 q -0.334821,2.120547 -3.962053,2.120547 -2.678572,0 -6.417411,-1.116094 -3.738839,-1.116016 -7.254464,-2.957578 -12.33259,1.339297 -21.875,4.631718 -8.537947,14.620542 -13.504465,14.620542 -0.837053,0 -1.5625,-0.39062 l -1.339285,-0.66969 q -0.0558,-0.0555 -0.334822,-0.27898 -0.558035,-0.55805 -0.334821,-2.00891 0.502232,-2.23219 3.125,-5.10601 2.622768,-2.87391 7.366071,-5.385082 0.78125,-0.502265 1.283482,0.334842 0.111608,0.11156 0.111608,0.2232 2.901785,-4.743276 5.970982,-10.993276 3.794643,-7.589297 5.803571,-14.620547 -1.339286,-4.575937 -1.702008,-8.900703 -0.362723,-4.324453 0.362723,-7.114609 0.61384,-2.232188 2.34375,-2.232188 h 1.171875 0.0558 q 1.283482,0 1.953125,0.83711 1.004464,1.171875 0.502232,3.794609 -0.111607,0.334844 -0.223214,0.446406 0.0558,0.167422 0.0558,0.446485 v 1.674062 q -0.111607,6.863828 -0.78125,10.714297 3.069197,9.151797 8.147322,13.28125 z M 38.888391,96.70086 q 2.901785,-1.33922 7.64509,-8.81695 -2.845982,2.23218 -4.882813,4.6875 -2.03683,2.45539 -2.762276,4.12945 z M 61.098213,45.361641 q -0.837053,2.34375 -0.111607,7.366015 0.0558,-0.390625 0.390625,-2.455312 0,-0.167422 0.390625,-2.39961 0.0558,-0.223203 0.223214,-0.446406 -0.0558,-0.05547 -0.0558,-0.111562 0,-0.05625 -0.02791,-0.08375 -0.0279,-0.02812 -0.0279,-0.08367 -0.0558,-1.227735 -0.725446,-2.008985 0,0.05625 -0.0558,0.111641 v 0.111641 z M 54.17857,82.247734 q 7.533481,-3.013359 15.848214,-4.520078 -0.111608,-0.05547 -0.725447,-0.530078 -0.613838,-0.474375 -0.892857,-0.753359 -4.241071,-3.738828 -7.087054,-9.821485 -1.506696,4.799141 -4.631696,10.99336 -1.674107,3.125 -2.511161,4.63164 z m 36.049106,-0.892812 q -1.339285,-1.339297 -7.8125,-1.339297 4.241073,1.5625 6.919643,1.5625 0.78125,0 1.004465,-0.05547 0,-0.05625 -0.111608,-0.167422 z"
     id="path4133"
     style="fill:#333333;fill-opacity:1" />
</svg>
